# xmcd CD database file
#
# Track frame offsets:
#	150
#	19715
#	40285
#	60908
#	79228
#	97273
#	117950
#	131293
#	151318
#
# Disc length: 2275 seconds
#
# Revision: 0
# Processed by: cddbd v1.5.1PL2 Copyright (c) Steve Scherf et al.
# Submitted via: CDex 1.51
#
DISCID=6a08e109
DTITLE=Rafael De Jesus - A Mi Puerto Rico
DYEAR=1995
DGENRE=Salsa
TTITLE0=Ese Amor Sin Amor
TTITLE1=Cancion Para Ti
TTITLE2=La Noche Aquella
TTITLE3=Por Siempre
TTITLE4=A Mi Puerto Rico
TTITLE5=La Nena Y Su Locura
TTITLE6=Si Tu Me Esperas
TTITLE7=Para Nosotros Dos Que Fuimos Uno
TTITLE8=Te Llamaria Maldita
EXTD=YEAR: 1995
EXTT0=
EXTT1=
EXTT2=
EXTT3=
EXTT4=
EXTT5=
EXTT6=
EXTT7=
EXTT8=
PLAYORDER=
